#!OML:ASF F:\VICON\USERDATA\INSTALL\rory3\rory3.ASF
:FULLY-SPECIFIED
:DEGREES
272
root -0.733629 16.8926 -1.49213 -0.818717 -5.34402 5.06741
lowerback 17.0083 -0.307705 -1.40379
upperback 4.81277 -0.669712 -0.314812
thorax -4.37383 -0.328619 0.599799
lowerneck -8.70922 -0.479988 -6.77911
upperneck -0.976048 -0.0896716 6.05391
head 1.2312 0.0818774 3.16791
rclavicle 1.07344e-014 2.78299e-015
rhumerus -25.9874 -2.0082 -81.3691
rradius 30.0055
rwrist 9.37425
rhand -27.1131 -0.371732
rfingers 7.12502
rthumb -0.529277 -30.3508
lclavicle 1.07344e-014 2.78299e-015
lhumerus -27.3818 13.3772 81.2438
lradius 31.3838
lwrist 5.2393
lhand -23.208 26.0636
lfingers 7.12502
lthumb 3.24224 56.0187
rfemur -25.2399 10.7855 13.7854
rtibia 67.603
rfoot -33.0969 -10.1467
rtoes -11.4877
lfemur -23.5995 6.18848 -21.7054
ltibia 64.0595
lfoot -26.5587 0.0929646
ltoes -6.9109
273
root -0.731984 16.9467 -1.48644 -0.579069 -5.20664 4.97689
lowerback 16.8384 -0.34006 -1.3385
upperback 4.7125 -0.693599 -0.221675
thorax -4.38889 -0.339936 0.664948
lowerneck -8.77163 -0.508264 -6.8392
upperneck -0.986968 -0.118134 6.09056
head 1.24159 0.0693315 3.1916
rclavicle -4.57205e-015 -1.23246e-014
rhumerus -25.9228 -2.11555 -81.1949
rradius 29.6927
rwrist 9.87779
rhand -27.1511 -0.511624
rfingers 7.12502
rthumb -0.56602 -30.4906
lclavicle -4.57205e-015 -1.23246e-014
lhumerus -27.0815 13.1561 81.4479
lradius 31.2786
lwrist 4.50887
lhand -22.8765 25.9355
lfingers 7.12502
lthumb 3.56241 55.8854
rfemur -25.0131 10.6282 13.8759
rtibia 66.8134
rfoot -32.5651 -10.4096
rtoes -11.2962
lfemur -23.3643 5.45226 -21.7279
ltibia 63.1699
lfoot -26.5748 0.488576
ltoes -6.09841
274
root -0.731385 16.9868 -1.48733 -0.249604 -4.98489 4.88278
lowerback 16.6274 -0.409954 -1.25388
upperback 4.57041 -0.7647 -0.155067
thorax -4.42576 -0.374059 0.700272
lowerneck -8.82586 -0.538799 -6.80893
upperneck -0.96218 -0.159764 6.10503
head 1.26228 0.0494221 3.18999
rclavicle 1.49089e-014 7.15625e-015
rhumerus -25.8777 -2.37318 -81.0187
rradius 29.3374
rwrist 10.5685
rhand -27.2633 -0.295971
rfingers 7.12502
rthumb -0.674438 -30.2746
lclavicle 1.49089e-014 7.15625e-015
lhumerus -26.7927 12.8739 81.5992
lradius 31.1414
lwrist 3.88202
lhand -22.7474 26.0019
lfingers 7.12502
lthumb 3.68701 55.9497
rfemur -24.8172 10.3077 13.9954
rtibia 65.9971
rfoot -31.7607 -10.7706
rtoes -10.6045
lfemur -23.3146 4.7425 -21.725
ltibia 62.3077
lfoot -26.4817 0.793043
ltoes -5.39996
275
root -0.730724 17.0357 -1.48017 -0.0081192 -5.01904 4.71759
lowerback 16.3398 -0.399546 -1.09964
upperback 4.53606 -0.719448 -0.107393
thorax -4.31075 -0.35326 0.651322
lowerneck -8.88711 -0.552213 -6.74195
upperneck -1.00074 -0.180371 6.14564
head 1.262 0.0408437 3.19055
rclavicle -1.51076e-014 -7.15625e-015
rhumerus -25.7892 -2.63889 -80.8627
rradius 29.3324
rwrist 12.0754
rhand -26.3247 -1.29949
rfingers 7.12502
rthumb 0.232121 -31.2791
lclavicle -1.51076e-014 -7.15625e-015
lhumerus -26.4092 12.6291 81.7023
lradius 30.955
lwrist 3.0748
lhand -22.4936 25.7663
lfingers 7.12502
lthumb 3.93212 55.7098
rfemur -24.6067 10.3157 14.1593
rtibia 65.1619
rfoot -31.2378 -10.7947
rtoes -9.71452
lfemur -23.0997 4.43105 -21.6373
ltibia 61.4085
lfoot -26.4321 1.42263
ltoes -6.09309
276
root -0.727912 17.1008 -1.46515 0.132193 -5.21791 4.6281
lowerback 16.0915 -0.315867 -0.987732
upperback 4.58074 -0.588789 -0.108518
thorax -4.13426 -0.290896 0.558718
lowerneck -9.06152 -0.596245 -6.67896
upperneck -1.0427 -0.234772 6.18292
head 1.28322 0.0169241 3.19044
rclavicle -1.19271e-015 -1.27222e-014
rhumerus -25.6535 -2.77714 -80.7934
rradius 29.2851
rwrist 12.8789
rhand -26.409 -0.210704
rfingers 7.12502
rthumb 0.150714 -30.1904
lclavicle -1.19271e-015 -1.27222e-014
lhumerus -25.8822 12.3367 81.8127
lradius 30.6458
lwrist 2.14682
lhand -22.2848 24.9087
lfingers 7.12502
lthumb 4.13371 54.8483
rfemur -24.3602 10.4835 14.1847
rtibia 64.3162
rfoot -31.1016 -10.5683
rtoes -9.01694
lfemur -22.6556 4.19617 -21.6355
ltibia 60.4291
lfoot -26.5053 1.98185
ltoes -6.48763
277
root -0.726841 17.1582 -1.45582 0.342274 -5.38075 4.5299
lowerback 15.9018 -0.243035 -0.920568
upperback 4.53287 -0.479163 -0.0753849
thorax -4.08536 -0.23739 0.53334
lowerneck -9.17454 -0.618511 -6.69851
upperneck -1.0361 -0.257605 6.2559
head 1.30819 0.00861552 3.21977
rclavicle -3.57812e-015 8.74653e-015
rhumerus -25.6064 -2.57974 -80.8272
rradius 29.0553
rwrist 12.4293
rhand -27.3599 1.25029
rfingers 7.12502
rthumb -0.767707 -28.7281
lclavicle -3.57812e-015 8.74653e-015
lhumerus -25.484 12.1097 81.9376
lradius 30.4149
lwrist 1.51668
lhand -22.2003 24.3377
lfingers 7.12502
lthumb 4.21531 54.2757
rfemur -24.2108 10.5783 14.2245
rtibia 63.4871
rfoot -31.0717 -10.4047
rtoes -8.19189
lfemur -22.3111 3.86891 -21.5905
ltibia 59.4169
lfoot -26.4797 2.16008
ltoes -5.59934
278
root -0.727125 17.2093 -1.44849 0.634667 -5.50519 4.38839
lowerback 15.6243 -0.177855 -0.857386
upperback 4.45416 -0.376952 0.00914948
thorax -4.02112 -0.18747 0.565694
lowerneck -9.20714 -0.653703 -6.7294
upperneck -1.06494 -0.29873 6.26489
head 1.30788 -0.0111684 3.22721
rclavicle 9.34288e-015 1.27222e-014
rhumerus -25.5623 -2.3318 -80.8647
rradius 28.6193
rwrist 11.4808
rhand -27.9755 1.51396
rfingers 7.12502
rthumb -1.36226 -28.4614
lclavicle 9.34288e-015 1.27222e-014
lhumerus -25.2304 11.8954 82.1001
lradius 30.4277
lwrist 1.16197
lhand -22.1272 24.4659
lfingers 7.12502
lthumb 4.28593 54.4025
rfemur -24.1559 10.6692 14.3078
rtibia 62.6828
rfoot -30.8418 -10.2564
rtoes -7.46026
lfemur -22.0297 3.55071 -21.4906
ltibia 58.3674
lfoot -26.3925 2.3322
ltoes -4.68366
